<svg width="763" height="1024" viewBox="0 0 763 1024" fill="none" xmlns="http://www.w3.org/2000/svg">
<path d="M173.077 680C267.101 680.001 343.32 757.008 343.32 852C343.32 946.992 267.101 1024 173.077 1024C79.0522 1024 2.82812 946.993 2.82812 852C2.82812 757.007 79.0522 680 173.077 680Z" fill="white"/>
<path d="M414.589 0C529.567 0.000426577 616.266 44.8644 674.682 134.596C733.562 223.86 763 348.415 763 508.25C763 668.551 733.562 794.036 674.682 884.702C616.266 974.901 529.567 1020 414.589 1020C404.71 1020 395.039 1019.66 385.577 1019.01C430.17 980.368 470.787 925.029 497.324 860.596C540.304 756.233 555.065 628.011 555.065 508.25C555.065 412.911 550.895 340.236 542.55 290.229C534.205 240.223 519.831 206.105 499.433 187.878C479.498 169.651 451.215 160.538 414.589 160.537C365.446 160.537 329.511 187.174 306.794 240.452C284.076 293.263 272.718 382.532 272.718 508.25C272.718 541.539 273.16 572.052 274.03 599.787C242.853 587.037 208.779 580 173.077 580C136.446 580 101.526 587.401 69.6945 600.787C67.3481 571.351 66.1736 540.505 66.1736 508.25C66.1736 348.415 95.1529 223.86 153.106 134.596C211.522 44.8651 298.685 0 414.589 0Z" fill="white"/>
</svg>
