<svg width="520" height="129" viewBox="0 0 520 129" fill="none" xmlns="http://www.w3.org/2000/svg">
<path fill-rule="evenodd" clip-rule="evenodd" d="M126.251 40.3682C134.697 40.3682 141.882 42.1754 147.805 45.791C153.728 49.4068 158.26 54.4965 161.401 61.0566C164.543 67.5649 166.114 75.2094 166.114 83.9902C166.114 93.1331 164.516 101.011 161.323 107.623C158.182 114.183 153.65 119.219 147.728 122.731C141.805 126.244 134.646 128 126.251 128C117.908 128 110.748 126.27 104.773 122.81C98.8507 119.349 94.2928 114.337 91.0996 107.777C87.958 101.217 86.3877 93.3398 86.3877 84.1455C86.3877 75.4161 87.9581 67.7709 91.0996 61.2109C94.2927 54.651 98.8508 49.5366 104.773 45.8691C110.748 42.2017 117.908 40.3682 126.251 40.3682ZM126.251 58.4219C121.255 58.4219 117.547 60.4879 115.126 64.6201C112.757 68.7008 111.572 75.2096 111.572 84.1455C111.572 93.2364 112.757 99.8226 115.126 103.903C117.547 107.984 121.255 110.024 126.251 110.024C131.247 110.024 134.93 107.984 137.299 103.903C139.719 99.8226 140.929 93.1844 140.929 83.9902C140.929 75.1059 139.719 68.6227 137.299 64.542C134.93 60.4615 131.246 58.422 126.251 58.4219Z" fill="white"/>
<path d="M396.97 43.0791H423.392L420.996 59.9707H396.97V97.3174C396.97 101.398 397.897 104.316 399.751 106.072C406.253 112.231 414.258 111.036 425.013 107.652C425.005 107.934 425 108.216 425 108.5C425 113.631 427.196 119.797 429.5 124C415.874 130.183 391.133 131.124 380.361 119.787C375.16 114.26 372.559 106.77 372.559 97.3174V59.9707H355.33V43.0791H372.559V25.2578L396.97 22.3145V43.0791Z" fill="white"/>
<path fill-rule="evenodd" clip-rule="evenodd" d="M33.6826 17.9766C48.2063 17.9766 59.4604 20.869 67.4434 26.6543C75.426 32.4396 79.418 41.1955 79.418 52.9209C79.4179 61.237 77.6405 68.1076 74.0869 73.5312C70.5332 78.9547 65.5629 83.0094 59.1768 85.6953C52.7904 88.3297 45.3732 89.6465 36.9268 89.6465H25.3398V125.366H0V17.9766H33.6826ZM25.3398 71.2061H35.3057C39.0652 71.206 42.2848 70.5599 44.9629 69.2686C47.6406 67.9772 49.7006 65.9884 51.1426 63.3027C52.5845 60.6168 53.3057 57.1809 53.3057 52.9971C53.3056 49.1751 52.5844 46.0241 51.1426 43.5449C49.752 41.014 47.6135 39.1548 44.7295 37.9668C41.897 36.7272 38.3181 36.1065 33.9922 36.1064H25.3398V71.2061Z" fill="white"/>
<path d="M230.406 108.63H251.265V125.366H182.74V108.63H205.993V59.8164H183.514V43.0801H230.406V108.63Z" fill="white"/>
<path d="M317.28 40.3682C324.284 40.3682 329.795 42.5118 333.812 46.7988C337.83 51.0861 339.839 57.13 339.839 64.9297V125.366H315.427V71.9814C315.427 68.6239 315.194 65.9629 314.73 64C314.267 61.9858 313.443 60.5657 312.259 59.7393C311.126 58.8613 309.555 58.4219 307.547 58.4219C305.848 58.4219 304.173 58.8084 302.525 59.583C300.929 60.3061 299.358 61.3662 297.812 62.7607C296.268 64.1553 294.723 65.8342 293.178 67.7969V125.366H268.765V43.0801H290.088L291.787 52.6104C295.444 48.4782 299.306 45.4041 303.375 43.3896C307.444 41.3752 312.079 40.3682 317.28 40.3682Z" fill="white"/>
<path d="M215.65 0C219.874 0 223.325 1.31695 226.003 3.95117C228.681 6.58555 230.02 9.86627 230.02 13.792C230.019 17.7175 228.681 21.023 226.003 23.709C223.325 26.3434 219.874 27.6602 215.65 27.6602C211.376 27.6601 207.874 26.3433 205.145 23.709C202.466 21.023 201.127 17.7176 201.127 13.792C201.127 9.86624 202.466 6.58556 205.145 3.95117C207.874 1.31711 211.376 7.94247e-05 215.65 0Z" fill="white"/>
<path d="M454.281 89.7109C464.755 89.7111 473.246 98.0584 473.246 108.355C473.246 118.652 464.755 127 454.281 127C443.806 127 435.314 118.653 435.314 108.355C435.314 98.0584 443.806 89.7109 454.281 89.7109Z" fill="white"/>
<path d="M481.186 16C493.994 16 503.653 20.8632 510.161 30.59C516.72 40.2661 519.999 53.7676 519.999 71.0935C519.999 88.4699 516.72 102.072 510.161 111.9C503.653 121.678 493.994 126.566 481.186 126.566C480.085 126.566 479.008 126.53 477.954 126.459C482.921 122.27 487.446 116.272 490.402 109.287C495.191 97.9745 496.835 84.0754 496.835 71.0935C496.835 60.7589 496.37 52.881 495.441 47.4603C494.511 42.0398 492.91 38.3414 490.637 36.3656C488.417 34.3899 485.266 33.402 481.186 33.402C475.711 33.402 471.708 36.2894 469.177 42.0646C466.646 47.7893 465.381 57.4659 465.381 71.0935C465.381 74.702 465.43 78.0095 465.527 81.016C462.054 79.6339 458.258 78.8711 454.281 78.8711C450.2 78.8711 446.31 79.6734 442.764 81.1244C442.502 77.9336 442.371 74.5899 442.371 71.0935C442.371 53.7676 445.6 40.2661 452.056 30.59C458.563 20.8633 468.274 16 481.186 16Z" fill="white"/>
</svg>
