<svg width="1024" height="1024" viewBox="0 0 1024 1024" fill="none" xmlns="http://www.w3.org/2000/svg">
<path d="M304.077 680C398.101 680.001 474.32 757.008 474.32 852C474.32 946.992 398.101 1024 304.077 1024C210.052 1024 133.828 946.993 133.828 852C133.828 757.007 210.052 680 304.077 680Z" fill="white"/>
<path d="M545.589 0C660.567 0.000426577 747.266 44.8644 805.682 134.596C864.562 223.86 894 348.415 894 508.25C894 668.551 864.562 794.036 805.682 884.702C747.266 974.901 660.567 1020 545.589 1020C535.71 1020 526.039 1019.66 516.577 1019.01C561.17 980.368 601.787 925.029 628.324 860.596C671.304 756.233 686.065 628.011 686.065 508.25C686.065 412.911 681.895 340.236 673.55 290.229C665.205 240.223 650.831 206.105 630.433 187.878C610.498 169.651 582.215 160.538 545.589 160.537C496.446 160.537 460.511 187.174 437.794 240.452C415.076 293.263 403.718 382.532 403.718 508.25C403.718 541.539 404.16 572.052 405.03 599.787C373.853 587.037 339.779 580 304.077 580C267.446 580 232.526 587.401 200.695 600.787C198.348 571.351 197.174 540.505 197.174 508.25C197.174 348.415 226.153 223.86 284.106 134.596C342.522 44.8651 429.685 0 545.589 0Z" fill="white"/>
</svg>
